<?xml version="1.0" standalone="yes"?>
<svg xmlns="http://www.w3.org/2000/svg" width="256" height="256">
<path style="fill:#b9855d; stroke:none;" d="M0 0L0 16L16 16L16 0L0 0z"/>
<path style="fill:#976d4b; stroke:none;" d="M16 0L16 32L32 32L32 16L48 16L48 0L16 0z"/>
<path style="fill:#79573b; stroke:none;" d="M48 0L48 32L16 32L16 16L0 16L0 32L16 32L16 48L48 48L48 64L64 64L64 48L48 48L48 32L80 32L80 0L48 0z"/>
<path style="fill:#b9855d; stroke:none;" d="M80 0L80 16L96 16L96 0L80 0z"/>
<path style="fill:#976d4b; stroke:none;" d="M96 0L96 16L128 16L128 0L96 0z"/>
<path style="fill:#79573b; stroke:none;" d="M128 0L128 32L112 32L112 48L96 48L96 80L128 80L128 64L112 64L112 48L128 48L128 32L144 32L144 16L160 16L160 0L128 0z"/>
<path style="fill:#5b3d25; stroke:none;" d="M160 0L160 16L144 16L144 48L160 48L160 16L176 16L176 0L160 0z"/>
<path style="fill:#79573b; stroke:none;" d="M176 0L176 32L160 32L160 80L144 80L144 112L160 112L160 96L176 96L176 48L192 48L192 112L176 112L176 128L160 128L160 160L176 160L176 144L192 144L192 128L208 128L208 96L224 96L224 112L240 112L240 80L256 80L256 32L240 32L240 80L208 80L208 48L192 48L192 16L208 16L208 0L176 0z"/>
<path style="fill:#b9855d; stroke:none;" d="M208 0L208 16L224 16L224 0L208 0z"/>
<path style="fill:#79573b; stroke:none;" d="M224 0L224 16L240 16L240 0L224 0z"/>
<path style="fill:#b9855d; stroke:none;" d="M240 0L240 16L256 16L256 0L240 0z"/>
<path style="fill:#5b3d25; stroke:none;" d="M32 16L32 32L48 32L48 16L32 16z"/>
<path style="fill:#5b3d29; stroke:none;" d="M80 16L80 32L128 32L128 16L80 16z"/>
<path style="fill:#976d4b; stroke:none;" d="M160 16L160 32L176 32L176 16L160 16z"/>
<path style="fill:#b9855f; stroke:none;" d="M192 16L192 32L208 32L208 16L192 16z"/>
<path style="fill:#956d4d; stroke:none;" d="M208 16L208 32L224 32L224 16L208 16z"/>
<path style="fill:#5b3d25; stroke:none;" d="M224 16L224 32L256 32L256 16L224 16z"/>
<path style="fill:#b9855d; stroke:none;" d="M0 32L0 48L16 48L16 32L0 32z"/>
<path style="fill:#5b3d25; stroke:none;" d="M48 32L48 48L64 48L64 80L80 80L80 48L64 48L64 32L48 32z"/>
<path style="fill:#b9855d; stroke:none;" d="M64 32L64 48L80 48L80 32L64 32z"/>
<path style="fill:#976d4b; stroke:none;" d="M80 32L80 96L96 96L96 48L112 48L112 32L80 32z"/>
<path style="fill:#b9855d; stroke:none;" d="M128 32L128 48L112 48L112 64L128 64L128 48L144 48L144 32L128 32z"/>
<path style="fill:#593d27; stroke:none;" d="M192 32L192 48L208 48L208 32L192 32z"/>
<path style="fill:#8b8783; stroke:none;" d="M208 32L208 48L224 48L224 32L208 32z"/>
<path style="fill:#b78565; stroke:none;" d="M224 32L224 48L240 48L240 32L224 32z"/>
<path style="fill:#976d4b; stroke:none;" d="M0 48L0 80L16 80L16 48L0 48z"/>
<path style="fill:#716b67; stroke:none;" d="M16 48L16 64L32 64L32 48L16 48z"/>
<path style="fill:#bb855d; stroke:none;" d="M32 48L32 64L48 64L48 48L32 48z"/>
<path style="fill:#976d4b; stroke:none;" d="M128 48L128 80L144 80L144 64L160 64L160 48L128 48z"/>
<path style="fill:#5b3d25; stroke:none;" d="M176 48L176 64L192 64L192 48L176 48z"/>
<path style="fill:#b78561; stroke:none;" d="M208 48L208 64L224 64L224 48L208 48z"/>
<path style="fill:#976d4b; stroke:none;" d="M224 48L224 64L208 64L208 80L224 80L224 64L240 64L240 48L224 48z"/>
<path style="fill:#79573b; stroke:none;" d="M16 64L16 80L32 80L32 64L16 64z"/>
<path style="fill:#976d4b; stroke:none;" d="M32 64L32 96L64 96L64 80L48 80L48 64L32 64z"/>
<path style="fill:#b9855d; stroke:none;" d="M48 64L48 80L64 80L64 64L48 64z"/>
<path style="fill:#5b3d25; stroke:none;" d="M144 64L144 80L160 80L160 64L144 64z"/>
<path style="fill:#b78561; stroke:none;" d="M176 64L176 80L192 80L192 64L176 64z"/>
<path style="fill:#5b3d25; stroke:none;" d="M224 64L224 80L240 80L240 64L224 64z"/>
<path style="fill:#b9855d; stroke:none;" d="M0 80L0 112L16 112L16 80L0 80z"/>
<path style="fill:#5b3d25; stroke:none;" d="M16 80L16 96L32 96L32 80L16 80z"/>
<path style="fill:#79573b; stroke:none;" d="M64 80L64 96L16 96L16 112L0 112L0 128L16 128L16 144L0 144L0 176L16 176L16 192L32 192L32 224L16 224L16 208L0 208L0 224L16 224L16 256L32 256L32 240L48 240L48 224L64 224L64 240L80 240L80 224L96 224L96 240L112 240L112 256L128 256L128 240L112 240L112 224L96 224L96 192L112 192L112 208L128 208L128 224L144 224L144 240L160 240L160 256L192 256L192 240L224 240L224 256L240 256L240 240L224 240L224 224L208 224L208 208L224 208L224 192L240 192L240 176L256 176L256 160L240 160L240 144L256 144L256 128L240 128L240 144L224 144L224 160L240 160L240 176L224 176L224 192L192 192L192 240L176 240L176 224L144 224L144 208L176 208L176 192L112 192L112 176L96 176L96 192L80 192L80 128L64 128L64 144L48 144L48 128L32 128L32 112L64 112L64 96L80 96L80 112L112 112L112 128L128 128L128 144L112 144L112 160L144 160L144 128L128 128L128 112L112 112L112 96L80 96L80 80L64 80z"/>
<path style="fill:#5b3d25; stroke:none;" d="M96 80L96 96L144 96L144 80L96 80M176 80L176 96L192 96L192 80L176 80z"/>
<path style="fill:#b9855d; stroke:none;" d="M240 80L240 96L256 96L256 80L240 80z"/>
<path style="fill:#716b67; stroke:none;" d="M64 96L64 112L80 112L80 96L64 96z"/>
<path style="fill:#b9855d; stroke:none;" d="M112 96L112 112L144 112L144 96L112 96M160 96L160 112L192 112L192 96L160 96z"/>
<path style="fill:#976d4b; stroke:none;" d="M208 96L208 112L224 112L224 128L192 128L192 144L224 144L224 128L256 128L256 96L240 96L240 112L224 112L224 96L208 96z"/>
<path style="fill:#b9855d; stroke:none;" d="M32 112L32 128L64 128L64 112L32 112z"/>
<path style="fill:#976d4b; stroke:none;" d="M64 112L64 128L80 128L80 144L96 144L96 112L64 112z"/>
<path style="fill:#5b3d29; stroke:none;" d="M96 112L96 144L80 144L80 160L112 160L112 144L128 144L128 128L112 128L112 112L96 112z"/>
<path style="fill:#976d4b; stroke:none;" d="M128 112L128 128L144 128L144 160L160 160L160 128L176 128L176 112L160 112L160 128L144 128L144 112L128 112z"/>
<path style="fill:#5b3d25; stroke:none;" d="M144 112L144 128L160 128L160 112L144 112z"/>
<path style="fill:#8b8783; stroke:none;" d="M208 112L208 128L224 128L224 112L208 112z"/>
<path style="fill:#976d4b; stroke:none;" d="M0 128L0 144L16 144L16 128L0 128M48 128L48 144L64 144L64 128L48 128z"/>
<path style="fill:#5b3d25; stroke:none;" d="M224 128L224 144L240 144L240 128L224 128z"/>
<path style="fill:#976d4b; stroke:none;" d="M16 144L16 176L32 176L32 144L16 144z"/>
<path style="fill:#5b3d25; stroke:none;" d="M32 144L32 160L48 160L48 144L32 144M176 144L176 176L160 176L160 192L192 192L192 144L176 144z"/>
<path style="fill:#b9855d; stroke:none;" d="M192 144L192 160L224 160L224 144L192 144z"/>
<path style="fill:#976d4b; stroke:none;" d="M240 144L240 160L256 160L256 144L240 144z"/>
<path style="fill:#b9855d; stroke:none;" d="M48 160L48 176L64 176L64 160L48 160z"/>
<path style="fill:#976d4b; stroke:none;" d="M80 160L80 192L96 192L96 160L80 160z"/>
<path style="fill:#b9855d; stroke:none;" d="M96 160L96 176L112 176L112 160L96 160z"/>
<path style="fill:#976d4b; stroke:none;" d="M112 160L112 192L128 192L128 160L112 160z"/>
<path style="fill:#593d29; stroke:none;" d="M128 160L128 176L144 176L144 160L128 160z"/>
<path style="fill:#b9855d; stroke:none;" d="M144 160L144 176L176 176L176 160L144 160z"/>
<path style="fill:#976d4b; stroke:none;" d="M192 160L192 192L224 192L224 160L192 160z"/>
<path style="fill:#8b8783; stroke:none;" d="M224 160L224 176L240 176L240 160L224 160z"/>
<path style="fill:#976d4b; stroke:none;" d="M0 176L0 192L16 192L16 176L0 176M48 176L48 208L64 208L64 176L48 176z"/>
<path style="fill:#716b67; stroke:none;" d="M128 176L128 192L144 192L144 176L128 176z"/>
<path style="fill:#976d49; stroke:none;" d="M144 176L144 192L160 192L160 176L144 176z"/>
<path style="fill:#5b3d25; stroke:none;" d="M240 176L240 192L256 192L256 176L240 176z"/>
<path style="fill:#5b3d29; stroke:none;" d="M0 192L0 208L32 208L32 192L0 192z"/>
<path style="fill:#b9855d; stroke:none;" d="M96 192L96 208L112 208L112 192L96 192z"/>
<path style="fill:#976d4b; stroke:none;" d="M176 192L176 208L192 208L192 192L176 192z"/>
<path style="fill:#b9855d; stroke:none;" d="M224 192L224 208L208 208L208 224L224 224L224 208L256 208L256 192L224 192z"/>
<path style="fill:#976d4b; stroke:none;" d="M16 208L16 224L32 224L32 208L16 208M96 208L96 224L128 224L128 208L96 208z"/>
<path style="fill:#5b3d29; stroke:none;" d="M144 208L144 224L192 224L192 208L144 208z"/>
<path style="fill:#996b4b; stroke:none;" d="M224 208L224 224L256 224L256 208L224 208z"/>
<path style="fill:#976d4b; stroke:none;" d="M0 224L0 256L16 256L16 224L0 224z"/>
<path style="fill:#b9855d; stroke:none;" d="M48 224L48 240L32 240L32 256L48 256L48 240L64 240L64 224L48 224z"/>
<path style="fill:#5b3d25; stroke:none;" d="M80 224L80 240L96 240L96 224L80 224M112 224L112 240L128 240L128 224L112 224z"/>
<path style="fill:#b9855d; stroke:none;" d="M128 224L128 240L144 240L144 224L128 224z"/>
<path style="fill:#976d4b; stroke:none;" d="M176 224L176 240L192 240L192 224L176 224M224 224L224 240L256 240L256 224L224 224M48 240L48 256L80 256L80 240L48 240z"/>
<path style="fill:#79553b; stroke:none;" d="M80 240L80 256L96 256L96 240L80 240z"/>
<path style="fill:#898785; stroke:none;" d="M96 240L96 256L112 256L112 240L96 240z"/>
<path style="fill:#976d4b; stroke:none;" d="M128 240L128 256L160 256L160 240L128 240z"/>
<path style="fill:#898783; stroke:none;" d="M192 240L192 256L208 256L208 240L192 240z"/>
<path style="fill:#956d4b; stroke:none;" d="M208 240L208 256L224 256L224 240L208 240z"/>
<path style="fill:#593d29; stroke:none;" d="M240 240L240 256L256 256L256 240L240 240z"/>
</svg>
